# xmcd CD database file
#
# Track frame offsets:
#	150
#	12323
#	27792
#	42407
#	55524
#	69215
#	81659
#	95640
#	107693
#	122941
#	136535
#	151068
#	178152
#	190343
#	202648
#	216902
#	230218
#	245030
#
# Disc length: 3435 seconds
#
# Revision: 0
# Processed by: cddbd v1.5.1PL0 Copyright (c) Steve Scherf et al.
# Submitted via: CDex 1.51
#
DISCID=f60d6912
DTITLE=Ulf Linde - Jazz 1948-52  Vol 2
DYEAR=2004
DGENRE=Jazz
TTITLE0=All the things you are
TTITLE1=Hallelujah
TTITLE2=All the things You Are
TTITLE3=Indiana
TTITLE4=Good bait
TTITLE5=Dexterious
TTITLE6=Blue and moody
TTITLE7=Chloe
TTITLE8=Stuffy
TTITLE9=The way you look to-night
TTITLE10=I can´t get started
TTITLE11=Cream of the crop
TTITLE12=Summertime
TTITLE13=Pick yourself up
TTITLE14=Sophisticated lady
TTITLE15=LÉstrado
TTITLE16=Absolution
TTITLE17=S´Wonderful
EXTD=YEAR: 2004
EXTT0=
EXTT1=
EXTT2=
EXTT3=
EXTT4=
EXTT5=
EXTT6=
EXTT7=
EXTT8=
EXTT9=
EXTT10=
EXTT11=
EXTT12=
EXTT13=
EXTT14=
EXTT15=
EXTT16=
EXTT17=
PLAYORDER=
